<?xml version="1.0" encoding="UTF-8"?>
<svg width="16px" height="16px" viewBox="0 0 16 16" version="1.1" xmlns="http://www.w3.org/2000/svg" xmlns:xlink="http://www.w3.org/1999/xlink">
    <!-- Generator: Sketch 52.5 (67469) - http://www.bohemiancoding.com/sketch -->
    <title>app_app-store</title>
    <desc>Created with Sketch.</desc>
    <g id="app_app-store" stroke="none" stroke-width="1" fill="none" fill-rule="evenodd">
        <path d="M2.17088151,5.88164834 C2.87812184,4.64445489 4.16095984,3.86323522 5.51859007,3.84314342 C5.53209856,3.84288112 5.54581569,3.84272375 5.55974144,3.84272375 C6.14363196,3.84272375 6.69518554,4.06284178 7.18180445,4.25709752 C7.54569942,4.40230408 7.85994153,4.52773358 8.10210354,4.52773358 C8.31761365,4.52773358 8.63008244,4.40382539 8.991839,4.26034998 C9.51590617,4.05250735 10.1682259,3.79383194 10.8491794,3.79383194 C10.9363848,3.79383194 11.0232252,3.79808112 11.1073534,3.80652703 C11.6871236,3.83160244 13.1271609,4.04002211 14.0667056,5.4229467 C14.0865251,5.45211391 14.093827,5.48820571 14.086838,5.52288112 C14.0798491,5.55760899 14.0592473,5.58798276 14.0296746,5.6071303 L14.0169485,5.61510408 C13.743962,5.78496637 12.3827852,6.7221467 12.4002576,8.49190408 C12.419086,10.6702123 14.21024,11.4694254 14.4144321,11.5534123 C14.4161533,11.5541467 14.4223078,11.5567172 14.4239768,11.5575041 C14.4845303,11.5854647 14.5143637,11.6548156 14.4932404,11.7183434 L14.488755,11.7325598 C14.3778184,12.0900156 14.0490246,13.0254123 13.3935756,13.9888221 C12.7654565,14.9115237 12.053522,15.9574516 10.8939817,15.9791696 C10.3519727,15.9893992 9.98515701,15.8290844 9.62903333,15.6741205 C9.26769402,15.5168483 8.89404581,15.3541729 8.30853844,15.3541729 C7.69309331,15.3541729 7.30072096,15.5223041 6.92133555,15.684927 C6.58341445,15.8296615 6.23391464,15.9794319 5.75026865,15.9988418 C5.73034491,15.9996287 5.71089059,15.9999959 5.69148842,15.9999959 C4.66207821,15.9999959 3.91050496,15.0307106 3.1681634,13.9508942 C1.68097675,11.7910516 0.826029587,8.22892703 2.17088151,5.88164834 Z M11.108553,0.000100796588 C11.1760433,-0.00257461325 11.235971,0.0483106327 11.2434815,0.116822108 C11.3388233,0.991104075 11.0236424,1.96715653 10.4003217,2.72770735 C9.80808614,3.44796965 8.94088223,3.89528768 8.13699615,3.89528768 C8.08056296,3.89523522 8.02392114,3.89303194 7.96842677,3.88867785 C7.90703873,3.88390408 7.85738587,3.83653358 7.84930163,3.77515653 C7.72037109,2.79417293 8.20975428,1.82095326 8.71071618,1.23724178 C9.30018744,0.542789321 10.2864122,0.0337794851 11.108553,0.000100796588 Z" fill="#4D4D4E" fill-rule="nonzero"></path>
    </g>
</svg>