<?xml version="1.0" encoding="UTF-8"?>
<svg width="20px" height="20px" viewBox="0 0 20 20" version="1.1" xmlns="http://www.w3.org/2000/svg" xmlns:xlink="http://www.w3.org/1999/xlink">
    <!-- Generator: Sketch 51.1 (57501) - http://www.bohemiancoding.com/sketch -->
    <title>soc-wp</title>
    <desc>Created with Sketch.</desc>
    <defs></defs>
    <g id="Assets" stroke="none" stroke-width="1" fill="none" fill-rule="evenodd">
        <g id="Artboard-Copy" transform="translate(-122.000000, -103.000000)" fill-rule="nonzero">
            <circle id="Oval-1-Copy-58" fill="#3ACE01" cx="132" cy="113" r="10"></circle>
            <path d="M134.811414,113.806841 C134.585901,113.724734 134.421901,113.683707 134.257821,113.929975 C134.093848,114.176189 133.622335,114.730211 133.478768,114.894345 C133.335255,115.058506 133.191742,115.079046 132.945715,114.955912 C132.699662,114.832805 131.906907,114.573076 130.967153,113.735138 C130.235777,113.083027 129.741955,112.277508 129.598442,112.031241 C129.454928,111.785 129.583184,111.651917 129.706345,111.529266 C129.81701,111.419084 129.952371,111.241998 130.075398,111.098378 C130.198398,110.954784 130.239424,110.852137 130.321424,110.688003 C130.403451,110.523843 130.362424,110.380195 130.300911,110.257088 C130.239424,110.133981 129.747345,108.923343 129.542318,108.430888 C129.342628,107.951277 129.139746,108.016169 128.988725,108.008634 C128.845373,108.001502 128.681185,108 128.517185,108 C128.353186,108 128.086619,108.06154 127.861106,108.307781 C127.635593,108.554022 127,109.149071 127,110.359682 C127,111.570293 127.881593,112.739877 128.004619,112.904011 C128.127646,113.068172 129.739515,115.552543 132.207609,116.617924 C132.79464,116.871325 133.252906,117.022668 133.610241,117.136041 C134.199632,117.323182 134.735983,117.296797 135.159953,117.233487 C135.632646,117.162883 136.615572,116.638491 136.820652,116.063956 C137.025678,115.489394 137.025678,114.996965 136.964165,114.894372 C136.902652,114.791778 136.738652,114.730211 136.492626,114.607077 C136.246546,114.48397 135.036953,113.888921 134.811414,113.806841 Z" id="Oval-1-Copy-58-path" fill="#FFFFFF"></path>
        </g>
    </g>
</svg>