<?xml version="1.0" encoding="UTF-8"?>
<svg width="14px" height="14px" viewBox="0 0 14 14" version="1.1" xmlns="http://www.w3.org/2000/svg" xmlns:xlink="http://www.w3.org/1999/xlink">
    <!-- Generator: Sketch 52.5 (67469) - http://www.bohemiancoding.com/sketch -->
    <title>ic/ items</title>
    <desc>Created with Sketch.</desc>
    <g id="6.-Merh" stroke="none" stroke-width="1" fill="none" fill-rule="evenodd">
        <g id="06_04_02_00_mehr_hilfe" transform="translate(-351.000000, -163.000000)">
            <g id="Group" transform="translate(330.000000, 136.000000)">
                <g id="1-copy" transform="translate(0.000000, 11.000000)">
                    <g id="ic/-items" transform="translate(20.000000, 15.000000)">
                        <g>
                            <polygon id="Bounds" points="0 0 16 0 16 16 0 16"></polygon>
                            <path d="M7.99333333,1.33333333 C4.31333333,1.33333333 1.33333333,4.32 1.33333333,8 C1.33333333,11.68 4.31333333,14.6666667 7.99333333,14.6666667 C11.68,14.6666667 14.6666667,11.68 14.6666667,8 C14.6666667,4.32 11.68,1.33333333 7.99333333,1.33333333 Z M8,13.3333333 C5.05333333,13.3333333 2.66666667,10.9466667 2.66666667,8 C2.66666667,5.05333333 5.05333333,2.66666667 8,2.66666667 C10.9466667,2.66666667 13.3333333,5.05333333 13.3333333,8 C13.3333333,10.9466667 10.9466667,13.3333333 8,13.3333333 Z" id="Shape" fill="#9E9E9E" fill-rule="nonzero"></path>
                            <path d="M7.13793966,11.9499998 L7.13793966,10.4319094 L8.65603008,10.4319094 L8.65603008,11.9499998 L7.13793966,11.9499998 Z M9.19934664,8.31457276 C8.81582907,8.69809034 8.53618083,9.23341696 8.53618083,9.59296469 L7.2577889,9.59296469 C7.2577889,8.92979888 7.62532658,8.37849236 8.00085421,7.99497478 L8.74391952,7.24391952 C8.95964816,7.02819088 9.0954773,6.7245728 9.0954773,6.39698487 C9.0954773,5.73381905 8.56015068,5.19849243 7.89698487,5.19849243 C7.23381905,5.19849243 6.69849243,5.73381905 6.69849243,6.39698487 L5.5,6.39698487 C5.5,5.07065324 6.57065324,4 7.89698487,4 C9.22331649,4 10.2939697,5.07065324 10.2939697,6.39698487 C10.2939697,6.92432154 10.0782411,7.40371851 9.73467327,7.74728634 C9.43105518,7.99497478 9.43105518,8.08286422 9.19934664,8.31457276 Z" id="Shape" fill="#9E9E9E" fill-rule="nonzero"></path>
                        </g>
                    </g>
                </g>
            </g>
        </g>
    </g>
</svg>